<?xml version="1.0" encoding="UTF-8" standalone="no"?>
<svg
   xmlns:dc="http://purl.org/dc/elements/1.1/"
   xmlns:cc="http://creativecommons.org/ns#"
   xmlns:rdf="http://www.w3.org/1999/02/22-rdf-syntax-ns#"
   xmlns:svg="http://www.w3.org/2000/svg"
   xmlns="http://www.w3.org/2000/svg"
   version="1.1"
   width="512"
   height="512"
   viewBox="0 0 512 512"
   id="pirad">
  <title
     id="title">Pirad</title>
  <metadata
     id="metadata">
    <rdf:RDF>
      <cc:Work
         rdf:about="">
        <dc:format>image/svg+xml</dc:format>
        <dc:type
           rdf:resource="http://purl.org/dc/dcmitype/StillImage" />
        <dc:title>Pirad</dc:title>
      </cc:Work>
    </rdf:RDF>
  </metadata>
  <path
     id="pi"
     style="fill:#00005a;fill-opacity:1;stroke-width:1.41421354"
     d="m 123.45827,480.85526 c -13.29433,-6.63119 -20.46616,-17.7349 -20.4946,-31.73054 -0.0239,-11.76211 3.90062,-19.42363 19.94539,-38.93775 17.28268,-21.01971 22.13718,-28.19193 25.43775,-37.58263 2.4508,-6.97299 22.45234,-154.04909 22.45373,-165.1077 l 5.1e-4,-4.04019 -21.56676,0.62472 c -18.08557,0.52388 -22.84072,1.13586 -29.45924,3.79136 -12.16465,4.88072 -20.91626,12.38684 -30.29128,25.98035 -7.71269,11.18317 -8.90377,12.30473 -13.08148,12.31781 -2.52791,0.008 -4.59619,-0.61461 -4.59619,-1.38339 0,-3.56448 14.81689,-38.76894 20.83947,-49.51391 9.57452,-17.08204 25.69434,-33.14116 40.60433,-40.45143 l 11.23922,-5.51051 133.36412,-0.38835 133.36411,-0.38835 v 27.61196 27.61196 h -42.20311 -42.20312 l -2.3976,28.63782 c -3.70288,44.22878 -5.07832,73.76721 -5.10008,109.52855 -0.0188,30.97368 0.17488,33.42416 3.46608,43.84062 7.66133,24.24774 20.86522,35.7819 40.96181,35.7819 19.67288,0 35.23315,-16.81424 38.30376,-41.39061 l 1.01289,-8.10687 h 6.4143 6.41431 l -0.86145,13.08148 c -1.42505,21.63976 -9.97489,46.70895 -21.93833,64.32588 -19.35959,28.50827 -53.85071,40.37123 -77.34545,26.60239 -17.06275,-9.99943 -32.57412,-36.29262 -38.41613,-65.11887 -2.14713,-10.59456 -2.56581,-19.36509 -2.49786,-52.32591 0.0757,-36.72336 0.51203,-43.48821 6.01041,-93.18606 3.26082,-29.47345 5.92878,-55.41699 5.92878,-57.65231 v -4.06421 l -37.83021,0.37665 -37.83022,0.37666 -2.44091,26.87005 c -9.511,104.69891 -24.86738,204.10639 -34.95465,226.27417 -5.30439,11.65693 -10.0294,16.77461 -20.16263,21.83825 -10.54344,5.26862 -21.33609,5.7733 -30.08967,1.40701 z" />
  <g
     id="hat">
    <path
       id="hat0"
       style="fill:#000000;fill-opacity:1;stroke-width:1.79227066"
       d="M 91.398557,295.52908 C 65.815242,279.99302 45.058372,257.59474 26.083562,234.73383 c 2.561235,-11.83568 27.778702,-16.6634 38.152408,-26.56901 20.159773,-12.57149 42.22613,-30.3011 44.06162,-55.81 -0.0155,-26.51449 -5.94465,-53.606756 0.16579,-79.747646 9.90548,-19.694877 24.1959,-38.870435 45.17289,-47.627055 21.35315,-12.927034 50.93884,-12.582941 70.65885,3.420913 21.18531,15.030194 40.22151,40.216943 69.02925,37.780235 30.58815,-1.445906 55.64549,-21.486909 84.07653,-30.005824 8.73466,19.520725 15.58892,40.157344 19.9069,61.121369 2.66568,14.963688 -2.87601,29.813178 -12.56476,41.087808 -43.00448,-4.72166 -86.10151,6.63598 -124.48689,25.62319 -37.96217,17.43544 -73.95154,40.16679 -101.98855,71.53074 -18.11275,18.29934 -32.9455,39.44245 -49.29516,59.18723 -4.74014,5.53078 -12.056471,4.16567 -17.573883,0.8033 z" />
    <path
       id="hat1"
       style="fill:#ffffff;stroke-width:1.33907652"
       d="m 181.64668,101.24549 c -4.29935,-1.274888 -6.52666,-5.696203 -10.51609,-7.534976 -6.00845,-3.741651 -13.22131,-5.796792 -18.04117,-11.247827 -4.20122,-4.142542 -5.98934,-10.805252 -3.53855,-16.314698 2.30591,-6.680016 8.65099,-10.636296 14.49898,-13.92697 4.3849,-2.462024 9.1095,-5.664905 14.40058,-4.665263 3.232,0.38852 6.65633,1.294534 8.85727,3.884488 2.94119,4.194751 6.04146,8.679455 6.61123,13.919759 0.10403,6.510908 -0.5804,13.155643 1.07994,19.545014 0.30513,2.293452 2.25794,4.446956 1.29516,6.801668 -1.53149,2.972812 -4.85921,4.297396 -7.48512,6.116497 -2.24789,1.396334 -4.56271,2.796908 -7.16223,3.422308 z m 6.67828,-7.853203 c 1.68082,-1.930648 5.19282,-2.256037 5.6173,-5.150385 0.0175,-2.527104 -2.39982,-5.166901 -4.68204,-2.773689 -2.26321,0.550086 -4.3025,1.567946 -6.46679,2.549909 -1.83391,0.912157 -4.06619,1.134712 -5.75473,2.168236 -2.62839,3.484229 2.45388,8.560922 6.0557,6.374642 1.64485,-1.195619 3.1207,-2.820835 5.23056,-3.168713 z m -4.54551,-14.407772 c -1.70944,-1.97873 -4.48279,-3.665515 -7.1729,-3.055234 -2.33442,1.19408 -1.49288,4.368724 -1.03633,6.418037 0.51472,3.12076 3.93542,2.712143 5.65585,0.818572 1.42084,-0.791623 3.82458,-2.249579 2.55338,-4.181375 z m -15.74546,-3.884771 c -0.31604,-3.534728 -2.3568,-7.801869 -6.28571,-8.230851 -3.31155,-0.02869 -6.4081,2.810973 -6.97614,6.029613 -0.25295,2.630401 1.62784,4.873385 3.14461,6.823865 1.65325,2.085676 4.63801,2.917101 7.04267,1.648557 2.37395,-1.015857 3.6544,-3.785997 3.07457,-6.271184 z m 19.9746,-9.979875 c -0.38761,-3.950692 -3.13611,-7.312653 -6.27702,-9.52411 -3.49396,-1.499016 -7.27456,1.721214 -7.98152,5.08959 -1.2191,4.042902 1.57696,9.275733 6.10799,9.278934 3.28872,0.285146 7.51099,-1.177312 8.15055,-4.844414 z" />
  </g>
  <g
     id="sword">
    <g
       id="blade">
      <path
         id="blade0"
         style="fill:#e6e6e6;fill-opacity:1;stroke-width:0.25"
         d="m 419.00508,360.62259 c 6.54472,-18.39972 13.03974,-36.78535 19.70548,-55.13628 3.65948,-10.79308 7.72215,-21.43993 11.38369,-32.23268 2.56642,-6.37778 4.30226,-13.06254 7.05287,-19.36148 1.60031,0.25223 -1.95391,5.65867 -2.26699,8.04555 -2.59932,7.46252 -5.42373,14.8743 -7.73271,22.42054 -1.81268,3.53733 -2.88251,7.86038 -4.35819,11.70215 -3.56764,10.22507 -7.45635,20.37185 -10.83936,30.63852 -3.1372,7.8304 -5.61546,15.9373 -8.61753,23.83209 -1.28963,3.38032 -2.3829,6.94111 -3.62795,10.26796 l -0.28777,0.0115 -0.41155,-0.18792 z" />
      <path
         id="blade1"
         style="fill:#808080;fill-opacity:1;stroke-width:0.25"
         d="m 423.85647,361.94269 c -2.38885,-0.40632 -5.22156,-0.90278 -3.32177,-3.64107 3.76269,-11.11193 7.96032,-22.06912 11.67079,-33.20032 3.49977,-8.76364 6.16801,-17.8572 9.65813,-26.6266 3.5017,-10.46423 7.48093,-20.74095 11.00384,-31.19258 1.41923,-4.23689 4.33799,-12.4288 4.69348,-12.91834 2.24615,1.08155 2.71105,6.68797 4.94241,8.92965 3.48012,3.44695 0.0925,7.26267 -0.86986,11.05514 -1.891,3.38505 -2.55557,7.18625 -3.64189,10.84763 -1.47024,4.31698 -3.50642,8.43307 -4.7882,12.82333 -1.95823,3.61341 -2.27776,7.86433 -3.96994,11.60108 -1.78684,4.08033 -3.18618,8.23175 -4.76609,12.36503 -1.32779,4.05904 -2.43157,8.23946 -4.10997,12.1875 -1.53683,3.52463 -3.00308,7.74364 -4.10733,11.67897 -1.3325,4.43397 -3.10337,8.73544 -4.88804,12.97309 -0.22804,1.97534 -1.12203,3.67465 -3.28535,3.03544 -1.40893,-0.077 -2.8176,0.20516 -4.22021,0.0821 z" />
      <path
         id="blade2"
         style="fill:#b3b3b3;fill-opacity:1;stroke-width:0.35355338"
         d="m 411.75085,356.94312 c -3.22626,-1.95069 -3.77046,-4.44264 -1.52153,-7.29522 1.19355,-4.33776 3.37041,-8.28846 4.31835,-12.68572 1.39155,-3.77851 2.51293,-7.7649 3.96698,-11.36168 1.974,-3.74257 2.9585,-8.01315 4.63818,-11.87766 0.43146,-4.15873 2.73587,-7.67272 3.9366,-11.54214 1.42854,-3.7467 2.80813,-7.34884 3.86929,-11.20511 1.05417,-3.149 2.31787,-6.20081 3.31005,-9.44795 1.38236,-3.91581 3.40768,-7.61307 4.1978,-11.77135 1.35519,-3.76058 2.04259,-8.41375 6.15828,-10.02364 3.65046,-1.30137 7.39805,-2.8821 10.49811,-5.10223 1.41382,-0.87401 3.27543,-1.72658 1.50776,0.50335 -2.7462,6.82977 -4.67544,13.96805 -7.49868,20.73082 -2.54911,7.5075 -5.09282,15.0093 -8.00221,22.3861 -2.09895,5.87311 -3.67682,11.83426 -6.21258,17.54011 -1.58139,4.87366 -3.46837,9.71664 -5.06308,14.6207 -3.75834,9.93992 -7.21712,20.04301 -10.70267,30.09753 -2.49371,-0.43761 -5.27909,-2.03686 -7.40065,-3.56591 z" />
    </g>
    <g
       id="handle">
      <path
         id="handle0"
         style="fill:#552200;fill-opacity:1;stroke-width:1.17529321"
         d="m 408.65885,403.88607 c -4.69052,-1.88168 -9.16617,-4.24822 -13.74847,-6.37096 -2.2065,-0.68566 -1.56474,-3.14432 -0.89397,-4.72995 1.8193,-5.56669 4.01073,-11.00302 6.36515,-16.36129 0.94705,-2.36531 1.40994,-4.87589 2.08063,-7.32024 0.49066,-1.51087 1.52276,-3.8683 3.53182,-2.92589 5.49425,1.42 10.09208,5.12806 15.61732,6.45287 2.65238,-0.23374 2.2195,2.6851 1.44674,4.26269 -2.71137,8.2308 -5.86751,16.3165 -9.31934,24.26394 -0.79372,1.21559 -0.99691,3.83574 -2.97063,3.26848 -0.7195,-0.10401 -1.42756,-0.28752 -2.10925,-0.53965 z" />
      <path
         id="handle1"
         style="fill:#000000;fill-opacity:1;stroke-width:0.25"
         d="m 425.30807,376.2683 c -2.51825,-0.98902 -5.27915,-0.5165 -7.85218,-1.06963 -2.18407,-0.54465 -4.21831,-1.50628 -6.28261,-2.35179 -1.84721,-1.40766 -4.6802,-1.21544 -5.66348,-3.65481 -1.3975,-1.8469 -3.91015,-2.35362 -5.23407,-4.38445 -1.85893,-1.85044 -3.94512,-3.58324 -5.12905,-5.9764 -1.48446,-1.8445 -2.42298,-3.99489 -3.48972,-6.05294 -1.44573,-2.63087 1.61045,-4.15363 3.71162,-4.3682 1.99322,-0.61066 3.68644,-2.03414 5.83351,-2.49504 1.46894,-0.24117 3.67954,-2.37305 4.30481,0.1603 0.65473,1.86426 2.23938,3.18619 2.50081,5.34904 1.44963,1.10585 1.60059,3.24765 3.70644,3.52574 1.05971,1.89182 2.88624,2.62928 4.83257,3.05075 1.83675,1.07397 3.67208,1.50154 5.70524,1.90492 1.93358,1.06328 4.09409,0.42184 6.17196,0.58468 1.95914,0.0332 3.93164,0.0847 5.87518,-0.21209 1.11595,-1.09295 3.49595,-1.31007 4.70459,-1.00967 1.85921,1.49715 1.6276,3.96563 2.79383,5.75847 1.32092,1.757 1.61534,3.9361 2.52315,5.90077 0.67642,2.53642 -3.02495,3.19381 -4.8619,3.63835 -2.01212,0.52144 -4.13856,1.10173 -6.39468,1.12249 -2.42162,0.92824 -5.2005,0.72942 -7.75602,0.57951 z" />
      <path
         id="handle2"
         style="fill:#800000;fill-opacity:1;stroke-width:0.08998743"
         d="m 392.55653,390.37891 c -11.8592,1.53984 -9.17366,11.514 1.81981,16.82093 7.43867,2.52699 17.36871,9.92471 21.88954,2.75338 3.301,-6.05582 -0.0611,-10.91928 -8.67757,-14.41619 -4.88221,-1.88434 -8.45341,-4.57436 -15.03178,-5.15812 z" />
      <g
         id="dots">
        <path
           id="dot0"
           style="fill:#800000;fill-opacity:1;stroke-width:0.25"
           d="m 398.37994,356.11505 c -0.57817,-0.60348 -0.70825,-0.95666 -0.69422,-1.88485 0.0278,-1.84169 1.24533,-2.76463 3.37678,-2.55982 1.70886,0.1642 2.75355,1.1922 2.75355,2.70958 0,0.88421 -0.13652,1.19147 -0.78803,1.7736 -0.68738,0.61418 -0.98912,0.70411 -2.36232,0.70411 -1.41939,0 -1.64429,-0.0731 -2.28576,-0.74262 z" />
        <path
           id="dot1"
           style="fill:#800000;fill-opacity:1;stroke-width:0.25"
           d="m 408.47613,365.16107 c -0.71405,-0.638 -0.7809,-0.83058 -0.79464,-2.2892 -0.0143,-1.52096 0.026,-1.63019 0.89702,-2.4284 0.78557,-0.71992 1.0893,-0.8358 2.19069,-0.8358 1.12084,0 1.38359,0.10492 2.12867,0.85 0.80477,0.80477 0.99592,1.40003 0.89111,2.775 -0.13228,1.73529 -1.23048,2.625 -3.24014,2.625 -1.06153,0 -1.43269,-0.12474 -2.07271,-0.6966 z" />
        <path
           id="dot2"
           style="fill:#800000;fill-opacity:1;stroke-width:0.25"
           d="m 420.47613,370.16107 c -0.35633,-0.30104 -0.69762,-0.67617 -0.73751,-1.16428 -0.0775,-0.6887 -0.0673,-1.38586 -0.0424,-2.07748 0.01,-0.42259 0.19043,-0.82879 0.50287,-1.11466 0.48947,-0.4563 0.97507,-1.00713 1.66511,-1.13607 0.55336,-0.0867 1.12059,-0.0762 1.67692,-0.0241 0.66455,0.06 1.13591,0.58123 1.56719,1.03482 0.43738,0.45556 0.69322,1.07028 0.70152,1.70235 0.0258,0.88003 -0.0465,1.85117 -0.65664,2.54428 -0.63192,0.72405 -1.63859,0.92787 -2.5574,0.93158 -0.63522,0.009 -1.32682,-0.0299 -1.83566,-0.4599 -0.0981,-0.0746 -0.19208,-0.15447 -0.28398,-0.23654 z" />
        <path
           id="dot3"
           style="fill:#800000;fill-opacity:1;stroke-width:0.25"
           d="m 431.47613,370.16107 c -0.71405,-0.638 -0.7809,-0.83058 -0.79464,-2.2892 -0.0143,-1.52096 0.026,-1.63019 0.89702,-2.4284 0.78557,-0.71992 1.0893,-0.8358 2.19069,-0.8358 1.12084,0 1.38359,0.10492 2.12867,0.85 0.80477,0.80477 0.99592,1.40003 0.89111,2.775 -0.13228,1.73529 -1.23048,2.625 -3.24014,2.625 -1.06153,0 -1.43269,-0.12474 -2.07271,-0.6966 z" />
      </g>
    </g>
  </g>
</svg>
